<?xml version="1.0" encoding="utf-8"?>
<!-- Generator: Adobe Illustrator 21.0.2, SVG Export Plug-In . SVG Version: 6.00 Build 0)  -->
<svg version="1.1" id="图层_1" xmlns="http://www.w3.org/2000/svg" xmlns:xlink="http://www.w3.org/1999/xlink" x="0px" y="0px"
	 viewBox="0 0 100 100" style="enable-background:new 0 0 100 100;" xml:space="preserve">
<style type="text/css">
	.st0{clip-path:url(#SVGID_2_);}
	.st1{clip-path:url(#SVGID_4_);enable-background:new    ;}
	.st2{clip-path:url(#SVGID_6_);}
	.st3{clip-path:url(#SVGID_8_);fill:#0070C9;}
</style>
<g>
	<defs>
		<path id="SVGID_1_" d="M66.7,69.5c-4.2,3.7-9.7,5.9-15.7,5.9c-6,0-11.4-2.2-15.7-5.9c-3.6-3.2-6.2-7.3-7.6-12.1H14.1v24.4h73.9
			V57.4H74.3C73,62.1,70.3,66.3,66.7,69.5z M18.7,32c0.6-1.1,1.7-1.7,2.9-1.7c0.6,0,1.2,0.2,1.7,0.5c1.6,0.9,2.1,3,1.2,4.6
			l-8.5,15.1h14.4c1.7,0.1,3.1,1.5,3.3,3.2c0.7,4.2,2.8,7.9,5.9,10.5c3.1,2.7,7,4.3,11.3,4.3c4.4,0,8.3-1.6,11.4-4.3
			c3.1-2.7,5.3-6.5,5.9-10.8c0.3-1.7,1.7-2.9,3.3-2.9H86l-8.5-15.1c-0.9-1.6-0.3-3.7,1.2-4.6c0.5-0.3,1.1-0.5,1.7-0.5
			c1.2,0,2.3,0.6,2.9,1.7l11,19.4c0.4,0.7,0.5,1.4,0.4,2.1V54v31.3c0,1.9-1.5,3.4-3.3,3.4H10.7c-1.9,0-3.4-1.6-3.4-3.4V54v-0.4
			c0-0.1,0-0.2,0-0.3v-0.1c0-0.6,0.2-1.2,0.5-1.7L18.7,32z M36.9,40.5L51,54.9l14.1-14.4H58c-1.1,0-2-0.9-2-2v-21H46v21
			c0,1.1-0.9,2-2,2H36.9z M44,13.3h14c1.1,0,2,0.9,2,2v21h10c1.1,0,2,0.9,2,2.1c0,0.5-0.2,1.1-0.6,1.4v0L52.4,59.3
			c-0.8,0.8-2,0.8-2.8,0l-19-19.4c-0.8-0.8-0.8-2.1,0-2.9c0.4-0.4,0.9-0.6,1.4-0.6h10v-21C42,14.2,42.9,13.3,44,13.3z"/>
	</defs>
	<clipPath id="SVGID_2_">
		<use xlink:href="#SVGID_1_"  style="overflow:visible;"/>
	</clipPath>
	<g class="st0">
		<defs>
			<rect id="SVGID_3_" x="4.4" y="4.4" width="93" height="93"/>
		</defs>
		<clipPath id="SVGID_4_">
			<use xlink:href="#SVGID_3_"  style="overflow:visible;"/>
		</clipPath>
		<g class="st1">
			<g>
				<defs>
					<rect id="SVGID_5_" x="2.3" y="8.3" width="98" height="86"/>
				</defs>
				<clipPath id="SVGID_6_">
					<use xlink:href="#SVGID_5_"  style="overflow:visible;"/>
				</clipPath>
				<g class="st2">
					<defs>
						<rect id="SVGID_7_" x="7.3" y="13.3" width="87" height="75"/>
					</defs>
					<clipPath id="SVGID_8_">
						<use xlink:href="#SVGID_7_"  style="overflow:visible;"/>
					</clipPath>
					<rect x="2.3" y="8.3" class="st3" width="97.3" height="85.4"/>
				</g>
			</g>
		</g>
	</g>
</g>
</svg>
