<?xml version="1.0" encoding="utf-8"?>
<!-- Generator: Adobe Illustrator 21.0.2, SVG Export Plug-In . SVG Version: 6.00 Build 0)  -->
<svg version="1.1" id="图层_1" xmlns="http://www.w3.org/2000/svg" xmlns:xlink="http://www.w3.org/1999/xlink" x="0px" y="0px"
	 viewBox="0 0 100 100" style="enable-background:new 0 0 100 100;" xml:space="preserve">
<style type="text/css">
	.st0{fill:#717071;}
</style>
<path class="st0" d="M62.8,66.1H38.3c-2.3,0-4.5,0.5-6.5,1.3c-6.4,2.6-10.5,8.9-10.5,15.8v2.7h58.5v-2.7c0-5.7-2.9-11-7.6-14.2
	c-0.9-0.6-1.9-1.2-2.9-1.6c-1-0.4-2.1-0.7-3.2-1C65,66.2,63.9,66.1,62.8,66.1L62.8,66.1z M64.8,59.6L64.8,59.6
	c0.9,0.1,1.7,0.2,2.5,0.4c1.5,0.3,3,0.7,4.4,1.3c8.7,3.6,14.6,12.4,14.6,21.8v6c0,1.8-1.5,3.3-3.2,3.3H83H18c-1.8,0-3.3-1.5-3.3-3.3
	v-0.1v-5.9c0-9.5,5.8-18.1,14.6-21.8c2.2-0.9,4.6-1.5,7-1.7c-8.5-5-13.8-14.3-13.8-24.2C22.5,20,35.3,7.4,50.6,7.4
	c15.5,0,28.1,12.7,28.1,28.1C78.7,45.3,73.4,54.6,64.8,59.6L64.8,59.6z M50.6,13.9L50.6,13.9c-8.6,0-16.6,5.2-19.9,13.3
	c-1.1,2.5-1.6,5.3-1.6,8.2C29,44,34.2,52,42.2,55.3c5.3,2.3,11.4,2.3,16.8,0c8-3.4,13.2-11.3,13.2-19.9
	C72.1,23.6,62.5,13.9,50.6,13.9L50.6,13.9z"/>
</svg>
