<?xml version="1.0" encoding="utf-8"?>
<!-- Generator: Adobe Illustrator 21.0.2, SVG Export Plug-In . SVG Version: 6.00 Build 0)  -->
<svg version="1.1" id="图层_1" xmlns="http://www.w3.org/2000/svg" xmlns:xlink="http://www.w3.org/1999/xlink" x="0px" y="0px"
	 viewBox="0 0 100 100" style="enable-background:new 0 0 100 100;" xml:space="preserve">
<style type="text/css">
	.st0{clip-path:url(#SVGID_2_);}
	.st1{clip-path:url(#SVGID_4_);fill:#0070C9;}
</style>
<g>
	<defs>
		<path id="SVGID_1_" d="M62.3,67.2H37.7c-2.3,0-4.5,0.5-6.5,1.3c-6.4,2.6-10.6,8.9-10.6,15.8V87h58.8v-2.7c0-5.7-2.9-11-7.6-14.2
			c-0.9-0.6-1.9-1.2-3-1.6c-1-0.4-2.1-0.7-3.2-1C64.5,67.3,63.4,67.2,62.3,67.2 M64.3,60.7L64.3,60.7c0.9,0.1,1.7,0.2,2.5,0.4
			c1.5,0.3,3,0.7,4.4,1.3C80.1,66.1,86,74.8,86,84.2v6c0,1.8-1.5,3.3-3.3,3.3h-0.1H17.3c-1.8,0-3.3-1.5-3.3-3.3v-0.1v-5.9
			c0-9.5,5.8-18.1,14.7-21.8c2.2-0.9,4.6-1.5,7-1.7c-8.6-5-13.9-14.3-13.9-24.2C21.8,21.1,34.6,8.5,50,8.5
			c15.5,0,28.3,12.7,28.3,28.1C78.3,46.4,72.9,55.7,64.3,60.7 M50,15L50,15c-8.7,0-16.6,5.2-20,13.3c-1.1,2.5-1.6,5.3-1.6,8.2
			c0,8.6,5.2,16.5,13.2,19.9c5.4,2.3,11.5,2.3,16.8,0c8-3.4,13.3-11.3,13.3-19.9C71.7,24.8,62,15,50,15"/>
	</defs>
	<clipPath id="SVGID_2_">
		<use xlink:href="#SVGID_1_"  style="overflow:visible;"/>
	</clipPath>
	<g class="st0">
		<defs>
			<rect id="SVGID_3_" x="4" y="5.5" width="93" height="93"/>
		</defs>
		<clipPath id="SVGID_4_">
			<use xlink:href="#SVGID_3_"  style="overflow:visible;"/>
		</clipPath>
		<rect x="9" y="3.5" class="st1" width="82" height="95"/>
	</g>
</g>
</svg>
