<?xml version="1.0" encoding="utf-8"?>
<!-- Generator: Adobe Illustrator 21.0.2, SVG Export Plug-In . SVG Version: 6.00 Build 0)  -->
<svg version="1.1" id="图层_1" xmlns="http://www.w3.org/2000/svg" xmlns:xlink="http://www.w3.org/1999/xlink" x="0px" y="0px"
	 viewBox="0 0 100 100" style="enable-background:new 0 0 100 100;" xml:space="preserve">
<style type="text/css">
	.st0{clip-path:url(#SVGID_2_);}
	.st1{clip-path:url(#SVGID_4_);enable-background:new    ;}
	.st2{clip-path:url(#SVGID_6_);}
	.st3{clip-path:url(#SVGID_8_);}
	.st4{clip-path:url(#SVGID_10_);fill:#717171;}
</style>
<g>
	<defs>
		<rect id="SVGID_1_" x="7.3" y="12.2" width="87.3" height="75.4"/>
	</defs>
	<clipPath id="SVGID_2_">
		<use xlink:href="#SVGID_1_"  style="overflow:visible;"/>
	</clipPath>
	<g class="st0">
		<defs>
			<rect id="SVGID_3_" x="1.4" y="0.3" width="99.2" height="99.2"/>
		</defs>
		<clipPath id="SVGID_4_">
			<use xlink:href="#SVGID_3_"  style="overflow:visible;"/>
		</clipPath>
		<g class="st1">
			<g>
				<defs>
					<rect id="SVGID_5_" x="5.3" y="12.2" width="91.3" height="75.4"/>
				</defs>
				<clipPath id="SVGID_6_">
					<use xlink:href="#SVGID_5_"  style="overflow:visible;"/>
				</clipPath>
				<g class="st2">
					<defs>
						<path id="SVGID_7_" d="M49.6,58.2c0.8,0.8,2.1,0.8,2.8,0l18.9-19.3v0c0.4-0.3,0.6-0.9,0.6-1.4c0-1.2-0.9-2.1-2-2.1H60v-21
							c0-1.1-0.9-2-2-2H44c-1.1,0-2,0.9-2,2v21h-10c-0.5,0-1,0.2-1.4,0.6c-0.8,0.8-0.8,2.1,0,2.9L49.6,58.2z M44,39.4L44,39.4
							c1.1,0,2-0.9,2-2v-21H56v21c0,1.1,1,2,2,2h7.1L51,53.8L36.9,39.4H44z M94.6,52.5L94.6,52.5c0.1-0.7,0-1.5-0.4-2.1l-11-19.4
							c-0.9-1.7-2.9-2.2-4.6-1.3c-1.6,0.9-2.1,3-1.2,4.6L86,49.4H71.6c-1.6,0-3.1,1.2-3.3,2.9c-0.6,4.3-2.8,8.1-5.9,10.8
							c-3.1,2.7-7,4.3-11.4,4.3c-4.3,0-8.3-1.6-11.3-4.3c-3.1-2.7-5.2-6.4-5.9-10.5c-0.2-1.7-1.6-3.2-3.3-3.2H16.1l8.5-15.1
							c1-1.6,0.4-3.7-1.2-4.6c-1.6-1-3.7-0.4-4.6,1.3l-11,19.4c-0.4,0.7-0.5,1.4-0.4,2.1v0.4v31.3c0,1.9,1.5,3.4,3.4,3.4h80.6
							c1.8,0,3.3-1.6,3.3-3.4V52.9V52.5z M87.9,80.7L87.9,80.7H14.1V56.3h13.7c1.3,4.8,4,8.9,7.6,12.1C39.6,72,45,74.3,51,74.3
							c6,0,11.5-2.2,15.7-5.9c3.6-3.2,6.2-7.3,7.5-12.1h13.7V80.7z"/>
					</defs>
					<clipPath id="SVGID_8_">
						<use xlink:href="#SVGID_7_"  style="overflow:visible;"/>
					</clipPath>
					<g class="st3">
						<defs>
							<rect id="SVGID_9_" x="7.3" y="12.2" width="87.3" height="75.4"/>
						</defs>
						<clipPath id="SVGID_10_">
							<use xlink:href="#SVGID_9_"  style="overflow:visible;"/>
						</clipPath>
						<rect x="-2.6" y="2.3" class="st4" width="107.2" height="95.3"/>
					</g>
				</g>
			</g>
		</g>
	</g>
</g>
</svg>
