<?xml version="1.0" encoding="utf-8"?>
<!-- Generator: Adobe Illustrator 16.0.0, SVG Export Plug-In . SVG Version: 6.00 Build 0)  -->
<!DOCTYPE svg PUBLIC "-//W3C//DTD SVG 1.1//EN" "http://www.w3.org/Graphics/SVG/1.1/DTD/svg11.dtd">
<svg version="1.1" id="图层_1" xmlns="http://www.w3.org/2000/svg" xmlns:xlink="http://www.w3.org/1999/xlink" x="0px" y="0px"
	 width="612px" height="792px" viewBox="0 0 612 792" enable-background="new 0 0 612 792" xml:space="preserve">
<g>
	<g>
		<defs>
			<rect id="SVGID_1_" x="-6339.33" y="-11396.498" width="13265.896" height="23595.609"/>
		</defs>
		<clipPath id="SVGID_2_">
			<use xlink:href="#SVGID_1_"  overflow="visible"/>
		</clipPath>
		
			<path clip-path="url(#SVGID_2_)" fill="none" stroke="#0070C9" stroke-width="2.5" stroke-linecap="round" stroke-linejoin="round" stroke-miterlimit="10" d="
			M2398.474-7491.018v-191.028c0-38.914-31.838-70.752-70.751-70.752h-222.867h-343.145c-38.914,0-70.752,31.838-70.752,70.752
			v191.028"/>
	</g>
	<g>
		<defs>
			<rect id="SVGID_3_" x="-6339.33" y="-11396.498" width="13265.896" height="23595.609"/>
		</defs>
		<clipPath id="SVGID_4_">
			<use xlink:href="#SVGID_3_"  overflow="visible"/>
		</clipPath>
		
			<path clip-path="url(#SVGID_4_)" fill="none" stroke="#0070C9" stroke-width="2.5" stroke-linecap="round" stroke-linejoin="round" stroke-miterlimit="10" d="
			M2398.474-7305.295v191.028c0,38.914-31.838,70.752-70.751,70.752h-566.012c-38.913,0-70.752-31.838-70.752-70.752v-191.028"/>
	</g>
	<g>
		<defs>
			<rect id="SVGID_5_" x="-6339.33" y="-11396.498" width="13265.896" height="23595.609"/>
		</defs>
		<clipPath id="SVGID_6_">
			<use xlink:href="#SVGID_5_"  overflow="visible"/>
		</clipPath>
		
			<line clip-path="url(#SVGID_6_)" fill="none" stroke="#0070C9" stroke-width="2.5" stroke-linecap="round" stroke-linejoin="round" stroke-miterlimit="10" x1="1690.959" y1="-7399.04" x2="2398.474" y2="-7399.04"/>
	</g>
</g>
<g>
	<g>
		<defs>
			<rect id="SVGID_7_" x="-6339.33" y="-11396.498" width="13265.896" height="23595.609"/>
		</defs>
		<clipPath id="SVGID_8_">
			<use xlink:href="#SVGID_7_"  overflow="visible"/>
		</clipPath>
		
			<path clip-path="url(#SVGID_8_)" fill="none" stroke="#0070C9" stroke-width="2.5" stroke-linecap="round" stroke-linejoin="round" stroke-miterlimit="10" d="
			M2398.474-7491.018v-191.028c0-38.914-31.838-70.752-70.751-70.752h-222.867h-343.145c-38.914,0-70.752,31.838-70.752,70.752
			v191.028"/>
	</g>
	<g>
		<defs>
			<rect id="SVGID_9_" x="-6339.33" y="-11396.498" width="13265.896" height="23595.609"/>
		</defs>
		<clipPath id="SVGID_10_">
			<use xlink:href="#SVGID_9_"  overflow="visible"/>
		</clipPath>
		
			<path clip-path="url(#SVGID_10_)" fill="none" stroke="#0070C9" stroke-width="2.5" stroke-linecap="round" stroke-linejoin="round" stroke-miterlimit="10" d="
			M2398.474-7305.295v191.028c0,38.914-31.838,70.752-70.751,70.752h-566.012c-38.913,0-70.752-31.838-70.752-70.752v-191.028"/>
	</g>
	<g>
		<defs>
			<rect id="SVGID_11_" x="-6339.33" y="-11396.498" width="13265.896" height="23595.609"/>
		</defs>
		<clipPath id="SVGID_12_">
			<use xlink:href="#SVGID_11_"  overflow="visible"/>
		</clipPath>
		
			<line clip-path="url(#SVGID_12_)" fill="none" stroke="#0070C9" stroke-width="2.5" stroke-linecap="round" stroke-linejoin="round" stroke-miterlimit="10" x1="1690.959" y1="-7399.04" x2="2398.474" y2="-7399.04"/>
	</g>
</g>
<g>
	<g>
		<defs>
			<rect id="SVGID_13_" x="-6339.33" y="-11396.498" width="13265.896" height="23595.609"/>
		</defs>
		<clipPath id="SVGID_14_">
			<use xlink:href="#SVGID_13_"  overflow="visible"/>
		</clipPath>
		
			<path clip-path="url(#SVGID_14_)" fill="none" stroke="#0070C9" stroke-width="2.5" stroke-linecap="round" stroke-linejoin="round" stroke-miterlimit="10" d="
			M2398.474-7491.018v-191.028c0-38.914-31.838-70.752-70.751-70.752h-222.867h-343.145c-38.914,0-70.752,31.838-70.752,70.752
			v191.028"/>
	</g>
	<g>
		<defs>
			<rect id="SVGID_15_" x="-6339.33" y="-11396.498" width="13265.896" height="23595.609"/>
		</defs>
		<clipPath id="SVGID_16_">
			<use xlink:href="#SVGID_15_"  overflow="visible"/>
		</clipPath>
		
			<path clip-path="url(#SVGID_16_)" fill="none" stroke="#0070C9" stroke-width="2.5" stroke-linecap="round" stroke-linejoin="round" stroke-miterlimit="10" d="
			M2398.474-7305.295v191.028c0,38.914-31.838,70.752-70.751,70.752h-566.012c-38.913,0-70.752-31.838-70.752-70.752v-191.028"/>
	</g>
	<g>
		<defs>
			<rect id="SVGID_17_" x="-6339.33" y="-11396.498" width="13265.896" height="23595.609"/>
		</defs>
		<clipPath id="SVGID_18_">
			<use xlink:href="#SVGID_17_"  overflow="visible"/>
		</clipPath>
		
			<line clip-path="url(#SVGID_18_)" fill="none" stroke="#0070C9" stroke-width="2.5" stroke-linecap="round" stroke-linejoin="round" stroke-miterlimit="10" x1="1690.959" y1="-7399.04" x2="2398.474" y2="-7399.04"/>
	</g>
</g>
<g>
	<g>
		<defs>
			<rect id="SVGID_19_" x="-6339.33" y="-11396.498" width="13265.896" height="23595.609"/>
		</defs>
		<clipPath id="SVGID_20_">
			<use xlink:href="#SVGID_19_"  overflow="visible"/>
		</clipPath>
		
			<path clip-path="url(#SVGID_20_)" fill="none" stroke="#0070C9" stroke-width="2.5" stroke-linecap="round" stroke-linejoin="round" stroke-miterlimit="10" d="
			M2398.474-7491.018v-191.028c0-38.914-31.838-70.752-70.751-70.752h-222.867h-343.145c-38.914,0-70.752,31.838-70.752,70.752
			v191.028"/>
	</g>
	<g>
		<defs>
			<rect id="SVGID_21_" x="-6339.33" y="-11396.498" width="13265.896" height="23595.609"/>
		</defs>
		<clipPath id="SVGID_22_">
			<use xlink:href="#SVGID_21_"  overflow="visible"/>
		</clipPath>
		
			<path clip-path="url(#SVGID_22_)" fill="none" stroke="#0070C9" stroke-width="2.5" stroke-linecap="round" stroke-linejoin="round" stroke-miterlimit="10" d="
			M2398.474-7305.295v191.028c0,38.914-31.838,70.752-70.751,70.752h-566.012c-38.913,0-70.752-31.838-70.752-70.752v-191.028"/>
	</g>
	<g>
		<defs>
			<rect id="SVGID_23_" x="-6339.33" y="-11396.498" width="13265.896" height="23595.609"/>
		</defs>
		<clipPath id="SVGID_24_">
			<use xlink:href="#SVGID_23_"  overflow="visible"/>
		</clipPath>
		
			<line clip-path="url(#SVGID_24_)" fill="none" stroke="#0070C9" stroke-width="2.5" stroke-linecap="round" stroke-linejoin="round" stroke-miterlimit="10" x1="1690.959" y1="-7399.04" x2="2398.474" y2="-7399.04"/>
	</g>
</g>
<g>
	<g>
		<defs>
			<rect id="SVGID_25_" x="-6339.33" y="-11396.498" width="13265.896" height="23595.609"/>
		</defs>
		<clipPath id="SVGID_26_">
			<use xlink:href="#SVGID_25_"  overflow="visible"/>
		</clipPath>
		
			<path clip-path="url(#SVGID_26_)" fill="none" stroke="#0070C9" stroke-width="2.5" stroke-linecap="round" stroke-linejoin="round" stroke-miterlimit="10" d="
			M2398.474-7491.018v-191.028c0-38.914-31.838-70.752-70.751-70.752h-222.867h-343.145c-38.914,0-70.752,31.838-70.752,70.752
			v191.028"/>
	</g>
	<g>
		<defs>
			<rect id="SVGID_27_" x="-6339.33" y="-11396.498" width="13265.896" height="23595.609"/>
		</defs>
		<clipPath id="SVGID_28_">
			<use xlink:href="#SVGID_27_"  overflow="visible"/>
		</clipPath>
		
			<path clip-path="url(#SVGID_28_)" fill="none" stroke="#0070C9" stroke-width="2.5" stroke-linecap="round" stroke-linejoin="round" stroke-miterlimit="10" d="
			M2398.474-7305.295v191.028c0,38.914-31.838,70.752-70.751,70.752h-566.012c-38.913,0-70.752-31.838-70.752-70.752v-191.028"/>
	</g>
	<g>
		<defs>
			<rect id="SVGID_29_" x="-6339.33" y="-11396.498" width="13265.896" height="23595.609"/>
		</defs>
		<clipPath id="SVGID_30_">
			<use xlink:href="#SVGID_29_"  overflow="visible"/>
		</clipPath>
		
			<line clip-path="url(#SVGID_30_)" fill="none" stroke="#0070C9" stroke-width="2.5" stroke-linecap="round" stroke-linejoin="round" stroke-miterlimit="10" x1="1690.959" y1="-7399.04" x2="2398.474" y2="-7399.04"/>
	</g>
</g>
<g>
	<g>
		<defs>
			<rect id="SVGID_31_" x="-6339.33" y="-11396.498" width="13265.896" height="23595.609"/>
		</defs>
		<clipPath id="SVGID_32_">
			<use xlink:href="#SVGID_31_"  overflow="visible"/>
		</clipPath>
		
			<path clip-path="url(#SVGID_32_)" fill="none" stroke="#0070C9" stroke-width="2.5" stroke-linecap="round" stroke-linejoin="round" stroke-miterlimit="10" d="
			M2398.474-7491.018v-191.028c0-38.914-31.838-70.752-70.751-70.752h-222.867h-343.145c-38.914,0-70.752,31.838-70.752,70.752
			v191.028"/>
	</g>
	<g>
		<defs>
			<rect id="SVGID_33_" x="-6339.33" y="-11396.498" width="13265.896" height="23595.609"/>
		</defs>
		<clipPath id="SVGID_34_">
			<use xlink:href="#SVGID_33_"  overflow="visible"/>
		</clipPath>
		
			<path clip-path="url(#SVGID_34_)" fill="none" stroke="#0070C9" stroke-width="2.5" stroke-linecap="round" stroke-linejoin="round" stroke-miterlimit="10" d="
			M2398.474-7305.295v191.028c0,38.914-31.838,70.752-70.751,70.752h-566.012c-38.913,0-70.752-31.838-70.752-70.752v-191.028"/>
	</g>
	<g>
		<defs>
			<rect id="SVGID_35_" x="-6339.33" y="-11396.498" width="13265.896" height="23595.609"/>
		</defs>
		<clipPath id="SVGID_36_">
			<use xlink:href="#SVGID_35_"  overflow="visible"/>
		</clipPath>
		
			<line clip-path="url(#SVGID_36_)" fill="none" stroke="#0070C9" stroke-width="2.5" stroke-linecap="round" stroke-linejoin="round" stroke-miterlimit="10" x1="1690.959" y1="-7399.04" x2="2398.474" y2="-7399.04"/>
	</g>
</g>
<g>
	<g>
		<defs>
			<rect id="SVGID_37_" x="-6339.33" y="-11396.498" width="13265.896" height="23595.609"/>
		</defs>
		<clipPath id="SVGID_38_">
			<use xlink:href="#SVGID_37_"  overflow="visible"/>
		</clipPath>
		
			<path clip-path="url(#SVGID_38_)" fill="none" stroke="#0070C9" stroke-width="2.5" stroke-linecap="round" stroke-linejoin="round" stroke-miterlimit="10" d="
			M2398.474-7491.018v-191.028c0-38.914-31.838-70.752-70.751-70.752h-222.867h-343.145c-38.914,0-70.752,31.838-70.752,70.752
			v191.028"/>
	</g>
	<g>
		<defs>
			<rect id="SVGID_39_" x="-6339.33" y="-11396.498" width="13265.896" height="23595.609"/>
		</defs>
		<clipPath id="SVGID_40_">
			<use xlink:href="#SVGID_39_"  overflow="visible"/>
		</clipPath>
		
			<path clip-path="url(#SVGID_40_)" fill="none" stroke="#0070C9" stroke-width="2.5" stroke-linecap="round" stroke-linejoin="round" stroke-miterlimit="10" d="
			M2398.474-7310.602v191.029c0,38.913-31.838,70.751-70.751,70.751h-566.012c-38.913,0-70.752-31.838-70.752-70.751v-191.029"/>
	</g>
	<g>
		<defs>
			<rect id="SVGID_41_" x="-6339.33" y="-11396.498" width="13265.896" height="23595.609"/>
		</defs>
		<clipPath id="SVGID_42_">
			<use xlink:href="#SVGID_41_"  overflow="visible"/>
		</clipPath>
		
			<line clip-path="url(#SVGID_42_)" fill="none" stroke="#0070C9" stroke-width="2.5" stroke-linecap="round" stroke-linejoin="round" stroke-miterlimit="10" x1="1690.959" y1="-7399.04" x2="2398.474" y2="-7399.04"/>
	</g>
</g>
<g>
	<defs>
		<rect id="SVGID_43_" x="-302.463" y="-201.85" width="1201.006" height="1201.006"/>
	</defs>
	<clipPath id="SVGID_44_">
		<use xlink:href="#SVGID_43_"  overflow="visible"/>
	</clipPath>
	
		<path clip-path="url(#SVGID_44_)" fill="none" stroke="#FDFEFF" stroke-width="2.5" stroke-linecap="round" stroke-linejoin="round" stroke-miterlimit="10" d="
		M562.474,337.63V197.896c0-28.301-22.994-51.295-51.295-51.295H348.45H97.283c-28.301,0-51.295,22.994-51.295,51.295V337.63"/>
</g>
<g>
	<defs>
		<rect id="SVGID_45_" x="-302.463" y="-201.85" width="1201.006" height="1201.006"/>
	</defs>
	<clipPath id="SVGID_46_">
		<use xlink:href="#SVGID_45_"  overflow="visible"/>
	</clipPath>
	
		<path clip-path="url(#SVGID_46_)" fill="none" stroke="#FFFFFF" stroke-width="2.5" stroke-linecap="round" stroke-linejoin="round" stroke-miterlimit="10" d="
		M562.474,470.289v137.966c0,28.301-22.994,51.295-51.295,51.295H97.283c-28.301,0-51.295-22.994-51.295-51.295V470.289"/>
</g>
<g>
	<defs>
		<rect id="SVGID_47_" x="-302.463" y="-201.85" width="1201.006" height="1201.006"/>
	</defs>
	<clipPath id="SVGID_48_">
		<use xlink:href="#SVGID_47_"  overflow="visible"/>
	</clipPath>
	
		<line clip-path="url(#SVGID_48_)" fill="none" stroke="#FFFFFF" stroke-width="2.5" stroke-linecap="round" stroke-linejoin="round" stroke-miterlimit="10" x1="45.989" y1="404.844" x2="562.474" y2="404.844"/>
</g>
</svg>
