<?xml version="1.0" encoding="utf-8"?>
<!-- Generator: Adobe Illustrator 21.0.2, SVG Export Plug-In . SVG Version: 6.00 Build 0)  -->
<svg version="1.1" id="图层_1" xmlns="http://www.w3.org/2000/svg" xmlns:xlink="http://www.w3.org/1999/xlink" x="0px" y="0px"
	 viewBox="0 0 100 100" style="enable-background:new 0 0 100 100;" xml:space="preserve">
<style type="text/css">
	.st0{clip-path:url(#SVGID_2_);}
	.st1{clip-path:url(#SVGID_4_);enable-background:new    ;}
	.st2{clip-path:url(#SVGID_6_);}
	.st3{clip-path:url(#SVGID_8_);fill:#0070C9;}
</style>
<g>
	<defs>
		<path id="SVGID_1_" d="M40.2,84.9h19.5v-32H40.2V84.9z M38.2,48.8h23.6c1.1,0,2.1,1,2.1,2.1v0.1v34H75V54.6c0-1.9,1.5-3.5,3.4-3.5
			c1.9,0,3.4,1.6,3.4,3.5v33.7c0,2-1.5,3.5-3.4,3.5h-0.1H21.6c-1.9,0-3.5-1.5-3.5-3.5v-0.1V54.6c0-1.9,1.6-3.5,3.5-3.5
			c1.9,0,3.5,1.6,3.5,3.5v30.3h11.1v-34C36.1,49.7,37,48.8,38.2,48.8L38.2,48.8z M47.6,9.3c0.7-0.7,1.5-1,2.4-1c0.9,0,1.8,0.3,2.4,1
			l0.1,0l41.3,41.4c1.3,1.3,1.3,3.5,0,4.8c-1.4,1.4-3.5,1.4-4.9,0l-39-39l-38.9,39c-1.4,1.4-3.5,1.4-4.9,0c-1.3-1.3-1.3-3.5,0-4.8
			L47.6,9.3z"/>
	</defs>
	<clipPath id="SVGID_2_">
		<use xlink:href="#SVGID_1_"  style="overflow:visible;"/>
	</clipPath>
	<g class="st0">
		<defs>
			<rect id="SVGID_3_" x="3.1" y="3.2" width="93" height="93"/>
		</defs>
		<clipPath id="SVGID_4_">
			<use xlink:href="#SVGID_3_"  style="overflow:visible;"/>
		</clipPath>
		<g class="st1">
			<g>
				<defs>
					<rect id="SVGID_5_" x="0.1" y="3.2" width="100" height="94"/>
				</defs>
				<clipPath id="SVGID_6_">
					<use xlink:href="#SVGID_5_"  style="overflow:visible;"/>
				</clipPath>
				<g class="st2">
					<defs>
						<rect id="SVGID_7_" x="5.1" y="8.2" width="90" height="84"/>
					</defs>
					<clipPath id="SVGID_8_">
						<use xlink:href="#SVGID_7_"  style="overflow:visible;"/>
					</clipPath>
					<rect x="0.2" y="3.2" class="st3" width="99.7" height="93.5"/>
				</g>
			</g>
		</g>
	</g>
</g>
</svg>
