<?xml version="1.0" encoding="utf-8"?>
<!-- Generator: Adobe Illustrator 21.0.2, SVG Export Plug-In . SVG Version: 6.00 Build 0)  -->
<svg version="1.1" id="图层_1" xmlns="http://www.w3.org/2000/svg" xmlns:xlink="http://www.w3.org/1999/xlink" x="0px" y="0px"
	 viewBox="0 0 34.6 34.6" style="enable-background:new 0 0 34.6 34.6;" xml:space="preserve">
<style type="text/css">
	
		.st0{clip-path:url(#SVGID_2_);fill:none;stroke:#0070C9;stroke-width:2.5;stroke-linecap:round;stroke-linejoin:round;stroke-miterlimit:10;}
	
		.st1{clip-path:url(#SVGID_4_);fill:none;stroke:#0070C9;stroke-width:2.5;stroke-linecap:round;stroke-linejoin:round;stroke-miterlimit:10;}
	
		.st2{clip-path:url(#SVGID_6_);fill:none;stroke:#0070C9;stroke-width:2.5;stroke-linecap:round;stroke-linejoin:round;stroke-miterlimit:10;}
	
		.st3{clip-path:url(#SVGID_8_);fill:none;stroke:#0070C9;stroke-width:2.5;stroke-linecap:round;stroke-linejoin:round;stroke-miterlimit:10;}
	
		.st4{clip-path:url(#SVGID_10_);fill:none;stroke:#0070C9;stroke-width:2.5;stroke-linecap:round;stroke-linejoin:round;stroke-miterlimit:10;}
	
		.st5{clip-path:url(#SVGID_12_);fill:none;stroke:#0070C9;stroke-width:2.5;stroke-linecap:round;stroke-linejoin:round;stroke-miterlimit:10;}
	
		.st6{clip-path:url(#SVGID_14_);fill:none;stroke:#0070C9;stroke-width:2.5;stroke-linecap:round;stroke-linejoin:round;stroke-miterlimit:10;}
	
		.st7{clip-path:url(#SVGID_16_);fill:none;stroke:#0070C9;stroke-width:2.5;stroke-linecap:round;stroke-linejoin:round;stroke-miterlimit:10;}
</style>
<g>
	<defs>
		<rect id="SVGID_1_" x="-358.4" y="-649.4" width="750" height="1334"/>
	</defs>
	<clipPath id="SVGID_2_">
		<use xlink:href="#SVGID_1_"  style="overflow:visible;"/>
	</clipPath>
	<path class="st0" d="M135.6-428.6v-10.8c0-2.2-1.8-4-4-4H119H99.6c-2.2,0-4,1.8-4,4v10.8"/>
	<path class="st0" d="M135.6-418.1v10.8c0,2.2-1.8,4-4,4h-32c-2.2,0-4-1.8-4-4v-10.8"/>
	<line class="st0" x1="95.6" y1="-423.4" x2="135.6" y2="-423.4"/>
</g>
<g>
	<defs>
		<rect id="SVGID_3_" x="-358.4" y="-649.4" width="750" height="1334"/>
	</defs>
	<clipPath id="SVGID_4_">
		<use xlink:href="#SVGID_3_"  style="overflow:visible;"/>
	</clipPath>
	<path class="st1" d="M135.6-428.6v-10.8c0-2.2-1.8-4-4-4H119H99.6c-2.2,0-4,1.8-4,4v10.8"/>
	<path class="st1" d="M135.6-418.1v10.8c0,2.2-1.8,4-4,4h-32c-2.2,0-4-1.8-4-4v-10.8"/>
	<line class="st1" x1="95.6" y1="-423.4" x2="135.6" y2="-423.4"/>
</g>
<g>
	<defs>
		<rect id="SVGID_5_" x="-358.4" y="-649.4" width="750" height="1334"/>
	</defs>
	<clipPath id="SVGID_6_">
		<use xlink:href="#SVGID_5_"  style="overflow:visible;"/>
	</clipPath>
	<path class="st2" d="M135.6-428.6v-10.8c0-2.2-1.8-4-4-4H119H99.6c-2.2,0-4,1.8-4,4v10.8"/>
	<path class="st2" d="M135.6-418.1v10.8c0,2.2-1.8,4-4,4h-32c-2.2,0-4-1.8-4-4v-10.8"/>
	<line class="st2" x1="95.6" y1="-423.4" x2="135.6" y2="-423.4"/>
</g>
<g>
	<defs>
		<rect id="SVGID_7_" x="-358.4" y="-649.4" width="750" height="1334"/>
	</defs>
	<clipPath id="SVGID_8_">
		<use xlink:href="#SVGID_7_"  style="overflow:visible;"/>
	</clipPath>
	<path class="st3" d="M135.6-428.6v-10.8c0-2.2-1.8-4-4-4H119H99.6c-2.2,0-4,1.8-4,4v10.8"/>
	<path class="st3" d="M135.6-418.1v10.8c0,2.2-1.8,4-4,4h-32c-2.2,0-4-1.8-4-4v-10.8"/>
	<line class="st3" x1="95.6" y1="-423.4" x2="135.6" y2="-423.4"/>
</g>
<g>
	<defs>
		<rect id="SVGID_9_" x="-358.4" y="-649.4" width="750" height="1334"/>
	</defs>
	<clipPath id="SVGID_10_">
		<use xlink:href="#SVGID_9_"  style="overflow:visible;"/>
	</clipPath>
	<path class="st4" d="M135.6-428.6v-10.8c0-2.2-1.8-4-4-4H119H99.6c-2.2,0-4,1.8-4,4v10.8"/>
	<path class="st4" d="M135.6-418.1v10.8c0,2.2-1.8,4-4,4h-32c-2.2,0-4-1.8-4-4v-10.8"/>
	<line class="st4" x1="95.6" y1="-423.4" x2="135.6" y2="-423.4"/>
</g>
<g>
	<defs>
		<rect id="SVGID_11_" x="-358.4" y="-649.4" width="750" height="1334"/>
	</defs>
	<clipPath id="SVGID_12_">
		<use xlink:href="#SVGID_11_"  style="overflow:visible;"/>
	</clipPath>
	<path class="st5" d="M135.6-428.6v-10.8c0-2.2-1.8-4-4-4H119H99.6c-2.2,0-4,1.8-4,4v10.8"/>
	<path class="st5" d="M135.6-418.1v10.8c0,2.2-1.8,4-4,4h-32c-2.2,0-4-1.8-4-4v-10.8"/>
	<line class="st5" x1="95.6" y1="-423.4" x2="135.6" y2="-423.4"/>
</g>
<g>
	<defs>
		<rect id="SVGID_13_" x="-358.4" y="-649.4" width="750" height="1334"/>
	</defs>
	<clipPath id="SVGID_14_">
		<use xlink:href="#SVGID_13_"  style="overflow:visible;"/>
	</clipPath>
	<path class="st6" d="M135.6-428.6v-10.8c0-2.2-1.8-4-4-4H119H99.6c-2.2,0-4,1.8-4,4v10.8"/>
	<path class="st6" d="M135.6-418.4v10.8c0,2.2-1.8,4-4,4h-32c-2.2,0-4-1.8-4-4v-10.8"/>
	<line class="st6" x1="95.6" y1="-423.4" x2="135.6" y2="-423.4"/>
</g>
<g>
	<defs>
		<rect id="SVGID_15_" x="-17.1" y="-16.5" width="67.9" height="67.9"/>
	</defs>
	<clipPath id="SVGID_16_">
		<use xlink:href="#SVGID_15_"  style="overflow:visible;"/>
	</clipPath>
	<path class="st7" d="M31.8,14V6.1c0-1.6-1.3-2.9-2.9-2.9h-9.2H5.5c-1.6,0-2.9,1.3-2.9,2.9V14"/>
	<path class="st7" d="M31.8,21.5v7.8c0,1.6-1.3,2.9-2.9,2.9H5.5c-1.6,0-2.9-1.3-2.9-2.9v-7.8"/>
	<line class="st7" x1="2.6" y1="17.8" x2="31.8" y2="17.8"/>
</g>
</svg>
