<?xml version="1.0" encoding="utf-8"?>
<!-- Generator: Adobe Illustrator 21.0.2, SVG Export Plug-In . SVG Version: 6.00 Build 0)  -->
<svg version="1.1" id="图层_1" xmlns="http://www.w3.org/2000/svg" xmlns:xlink="http://www.w3.org/1999/xlink" x="0px" y="0px"
	 viewBox="0 0 100 100" style="enable-background:new 0 0 100 100;" xml:space="preserve">
<style type="text/css">
	.st0{clip-path:url(#SVGID_2_);}
	.st1{clip-path:url(#SVGID_4_);fill:#717171;}
</style>
<g>
	<defs>
		<path id="SVGID_1_" d="M75.1,54.5c0-1.9,1.5-3.5,3.4-3.5c1.9,0,3.4,1.6,3.4,3.5v33.7c0,2-1.5,3.5-3.4,3.5h-0.1H21.6
			c-1.9,0-3.5-1.5-3.5-3.5v-0.1V54.5c0-1.9,1.6-3.5,3.5-3.5c1.9,0,3.5,1.6,3.5,3.5v30.3h11.1v-34c0-1.1,1-2.1,2.1-2.1h0.1h23.6
			c1.1,0,2.1,1,2.1,2.1v0.1v34h11.1V54.5z M40.3,84.8L40.3,84.8h19.5v-32H40.3V84.8z M11.1,55.4L11.1,55.4l38.9-39l39,39
			c1.4,1.4,3.5,1.4,4.9,0c1.3-1.3,1.3-3.5,0-4.8L52.6,9.2l-0.1,0c-1.3-1.4-3.5-1.4-4.8,0L6.2,50.6c-1.3,1.3-1.3,3.5,0,4.8
			C7.6,56.8,9.8,56.8,11.1,55.4z"/>
	</defs>
	<clipPath id="SVGID_2_">
		<use xlink:href="#SVGID_1_"  style="overflow:visible;"/>
	</clipPath>
	<g class="st0">
		<defs>
			<rect id="SVGID_3_" x="0.4" y="0.4" width="100.3" height="100.3"/>
		</defs>
		<clipPath id="SVGID_4_">
			<use xlink:href="#SVGID_3_"  style="overflow:visible;"/>
		</clipPath>
		<rect x="-4.8" y="-1.9" class="st1" width="109.7" height="103.6"/>
	</g>
</g>
</svg>
