<?xml version="1.0" standalone="no"?><!DOCTYPE svg PUBLIC "-//W3C//DTD SVG 1.1//EN" "http://www.w3.org/Graphics/SVG/1.1/DTD/svg11.dtd"><svg t="1524465652878" class="icon" style="" viewBox="0 0 1024 1024" version="1.1" xmlns="http://www.w3.org/2000/svg" p-id="1036" xmlns:xlink="http://www.w3.org/1999/xlink" width="200" height="200"><defs><style type="text/css"></style></defs><path d="M768 85.34016q70.67648 0 120.66816 49.99168t49.99168 120.66816-49.99168 120.66816-120.66816 49.99168q-37.66272 0-71.168-15.50336t-57.50784-43.17184l-216.33024 108.3392q3.66592 17.67424 3.66592 35.67616t-3.66592 35.67616l216.33024 108.3392q24.00256-27.66848 57.50784-43.17184t71.168-15.50336q70.67648 0 120.66816 49.99168t49.99168 120.66816-49.99168 120.66816-120.66816 49.99168-120.66816-49.99168-49.99168-120.66816q0-18.00192 3.66592-35.67616l-216.33024-108.3392q-24.00256 27.66848-57.50784 43.17184t-71.168 15.50336q-70.67648 0-120.66816-49.99168t-49.99168-120.66816 49.99168-120.66816 120.66816-49.99168q37.66272 0 71.168 15.50336t57.50784 43.17184l216.33024-108.3392q-3.66592-17.67424-3.66592-35.67616 0-70.67648 49.99168-120.66816t120.66816-49.99168zM256 426.65984q-35.328 0-60.33408 25.00608t-25.00608 60.33408 25.00608 60.33408 60.33408 25.00608 60.33408-25.00608 25.00608-60.33408-25.00608-60.33408-60.33408-25.00608zM768 682.65984q-35.328 0-60.33408 25.00608t-25.00608 60.33408 25.00608 60.33408 60.33408 25.00608 60.33408-25.00608 25.00608-60.33408-25.00608-60.33408-60.33408-25.00608zM768 170.65984q-35.328 0-60.33408 25.00608t-25.00608 60.33408 25.00608 60.33408 60.33408 25.00608 60.33408-25.00608 25.00608-60.33408-25.00608-60.33408-60.33408-25.00608z" p-id="1037" fill="#707070"></path></svg>