<?xml version="1.0" encoding="utf-8"?>
<!-- Generator: Adobe Illustrator 16.0.0, SVG Export Plug-In . SVG Version: 6.00 Build 0)  -->
<!DOCTYPE svg PUBLIC "-//W3C//DTD SVG 1.1//EN" "http://www.w3.org/Graphics/SVG/1.1/DTD/svg11.dtd">
<svg version="1.1" id="图层_1" xmlns="http://www.w3.org/2000/svg" xmlns:xlink="http://www.w3.org/1999/xlink" x="0px" y="0px"
	 width="200px" height="200px" viewBox="0 0 200 200" enable-background="new 0 0 200 200" xml:space="preserve">
<path fill="#706F73" d="M100.6,120.115c-34.896,0-67.433-18.786-84.94-49.025c-2.559-4.417-1.04-10.053,3.357-12.611
	c4.417-2.558,10.073-1.039,12.611,3.358c14.21,24.542,40.631,39.792,68.952,39.792c28.32,0,54.741-15.25,68.951-39.812
	c2.559-4.417,8.194-5.936,12.611-3.378c4.417,2.559,5.916,8.194,3.377,12.611C168.032,101.329,135.495,120.115,100.6,120.115z"/>
<path fill="#706F73" d="M52.753,129.31c-1.619,0-3.277-0.42-4.756-1.319c-4.377-2.639-5.776-8.314-3.138-12.671l10.193-16.868
	c2.638-4.377,8.314-5.756,12.671-3.138c4.377,2.638,5.776,8.313,3.138,12.671l-10.193,16.868
	C58.929,127.711,55.891,129.31,52.753,129.31z M147.946,129.31c-3.118,0-6.175-1.579-7.915-4.457l-10.191-16.868
	c-2.639-4.377-1.24-10.033,3.117-12.671c4.377-2.638,10.033-1.239,12.671,3.118l10.192,16.868c2.639,4.377,1.24,10.033-3.117,12.672
	C151.225,128.869,149.565,129.31,147.946,129.31L147.946,129.31z M100.6,141.321c-5.097,0-9.233-4.138-9.233-9.233v-21.205
	c0-5.097,4.137-9.234,9.233-9.234c5.096,0,9.233,4.138,9.233,9.234v21.205C109.833,137.184,105.695,141.321,100.6,141.321z"/>
</svg>
