<?xml version="1.0" encoding="utf-8"?>
<!-- Generator: Adobe Illustrator 16.0.0, SVG Export Plug-In . SVG Version: 6.00 Build 0)  -->
<!DOCTYPE svg PUBLIC "-//W3C//DTD SVG 1.1//EN" "http://www.w3.org/Graphics/SVG/1.1/DTD/svg11.dtd">
<svg version="1.1" id="图层_1" xmlns="http://www.w3.org/2000/svg" xmlns:xlink="http://www.w3.org/1999/xlink" x="0px" y="0px"
	 width="200px" height="200px" viewBox="0 0 200 200" enable-background="new 0 0 200 200" xml:space="preserve">
<path fill="#706F73" d="M100.6,162.766c-35.016,0-67.693-18.846-85.24-49.205c-1.899-3.298-0.78-7.515,2.518-9.414
	c3.298-1.898,7.515-0.779,9.414,2.52c15.109,26.102,43.189,42.31,73.309,42.31s58.219-16.208,73.309-42.31
	c1.898-3.299,6.115-4.418,9.414-2.52c3.297,1.899,4.416,6.116,2.518,9.414C168.292,143.92,135.615,162.766,100.6,162.766z
	 M179.885,94.974c-2.379,0-4.697-1.239-5.977-3.438c-15.109-26.102-43.189-42.311-73.309-42.311S42.4,65.434,27.291,91.536
	c-1.899,3.297-6.116,4.417-9.414,2.518c-3.298-1.899-4.417-6.116-2.518-9.414c17.547-30.359,50.225-49.206,85.24-49.206
	s67.692,18.847,85.24,49.206c1.898,3.298,0.779,7.515-2.518,9.414C182.242,94.674,181.043,94.974,179.885,94.974L179.885,94.974z"/>
<path fill="#706F73" d="M100.6,136.805c-20.565,0-37.274-16.729-37.274-37.274c0-20.545,16.729-37.274,37.274-37.274
	c20.545,0,37.273,16.729,37.273,37.274C137.873,120.076,121.165,136.805,100.6,136.805z M100.6,76.027
	c-12.951,0-23.503,10.533-23.503,23.503c0,12.972,10.532,23.503,23.503,23.503c12.971,0,23.504-10.552,23.504-23.503
	C124.104,86.58,113.551,76.027,100.6,76.027z"/>
</svg>
