<?xml version="1.0" standalone="no"?><!DOCTYPE svg PUBLIC "-//W3C//DTD SVG 1.1//EN" "http://www.w3.org/Graphics/SVG/1.1/DTD/svg11.dtd"><svg t="1523513247108" class="icon" style="" viewBox="0 0 1024 1024" version="1.1" xmlns="http://www.w3.org/2000/svg" p-id="2404" xmlns:xlink="http://www.w3.org/1999/xlink" width="200" height="200"><defs><style type="text/css"></style></defs><path d="M928 1024h-224c-19.2 0-32-12.8-32-32s12.8-32 32-32h224v-192c0-19.2 12.8-32 32-32s32 12.8 32 32v192c0 35.2-28.8 64-64 64zM960 288c-19.2 0-32-12.8-32-32V64h-224c-19.2 0-32-12.8-32-32s12.8-32 32-32h224c35.2 0 64 28.8 64 64v192c0 19.2-12.8 32-32 32zM64 288c-19.2 0-32-12.8-32-32V64c0-35.2 28.8-64 64-64h224c19.2 0 32 12.8 32 32s-12.8 32-32 32H96v192c0 19.2-12.8 32-32 32zM320 1024H96c-35.2 0-64-28.8-64-64v-192c0-19.2 12.8-32 32-32s32 12.8 32 32v192h224c19.2 0 32 12.8 32 32s-12.8 32-32 32zM992 544H32c-19.2 0-32-12.8-32-32s12.8-32 32-32h960c19.2 0 32 12.8 32 32s-12.8 32-32 32z" fill="#ffffff" p-id="2405"></path></svg>