<?xml version="1.0" standalone="no"?><!DOCTYPE svg PUBLIC "-//W3C//DTD SVG 1.1//EN" "http://www.w3.org/Graphics/SVG/1.1/DTD/svg11.dtd"><svg t="1524624441871" class="icon" style="" viewBox="0 0 1024 1024" version="1.1" xmlns="http://www.w3.org/2000/svg" p-id="3291" xmlns:xlink="http://www.w3.org/1999/xlink" width="200" height="200"><defs><style type="text/css"></style></defs><path d="M511.251963 668.953681c-26.391067 0-47.795563 21.398356-47.795562 47.789423 0 26.397207 21.398356 47.801702 47.795562 47.801703 26.403347 0 47.795563-21.398356 47.795563-47.801703 0-26.397207-21.393239-47.789423-47.795563-47.789423z" p-id="3292" fill="#F76260"></path><path d="M511.251963 65.258283c-245.972111 0-446.078615 200.101387-446.078615 446.078615 0 245.978251 200.106504 446.085778 446.078615 446.085777 245.984391 0 446.078615-200.106504 446.078615-446.085777 0-245.977227-200.100364-446.078615-446.078615-446.078615z m0 828.149427c-210.674187 0-382.063649-171.420161-382.063649-382.069789 0-210.680327 171.389462-382.063649 382.063649-382.063649 210.644511 0 382.069789 171.384345 382.069789 382.063649 0 210.649628-171.426301 382.069789-382.069789 382.069789z" p-id="3293" fill="#F76260"></path><path d="M508.189208 591.596849c21.170159 0 38.331004-17.160845 38.331003-38.331003V257.555937c0-21.171182-17.160845-38.331004-38.331003-38.331004-21.171182 0-38.331004 17.160845-38.331004 38.331004v295.709909c-0.001023 21.170159 17.159822 38.331004 38.331004 38.331003z" p-id="3294" fill="#F76260"></path></svg>