<?xml version="1.0" standalone="no"?><!DOCTYPE svg PUBLIC "-//W3C//DTD SVG 1.1//EN" "http://www.w3.org/Graphics/SVG/1.1/DTD/svg11.dtd"><svg t="1524638055315" class="icon" style="" viewBox="0 0 1117 1024" version="1.1" xmlns="http://www.w3.org/2000/svg" p-id="1927" xmlns:xlink="http://www.w3.org/1999/xlink" width="218.1640625" height="200"><defs><style type="text/css"></style></defs><path d="M1070.545455 325.818182h-93.09091v512a186.181818 186.181818 0 0 1-186.181818 186.181818H325.818182a186.181818 186.181818 0 0 1-186.181818-186.181818V325.818182H46.545455a46.545455 46.545455 0 0 1 0-93.090909h186.181818V186.181818a186.181818 186.181818 0 0 1 186.181818-186.181818h279.272727a186.181818 186.181818 0 0 1 186.181818 186.181818v46.545455h186.181819a46.545455 46.545455 0 0 1 0 93.090909z m-279.272728-139.636364a93.090909 93.090909 0 0 0-93.090909-93.090909H418.909091a93.090909 93.090909 0 0 0-93.090909 93.090909v46.545455h465.454545V186.181818z m93.090909 139.636364H232.727273v512a93.090909 93.090909 0 0 0 93.090909 93.090909h465.454545a93.090909 93.090909 0 0 0 93.090909-93.090909V325.818182z m-139.636363 465.454545a46.545455 46.545455 0 0 1-46.545455-46.545454v-279.272728a46.545455 46.545455 0 0 1 93.090909 0v279.272728a46.545455 46.545455 0 0 1-46.545454 46.545454z m-186.181818 0a46.545455 46.545455 0 0 1-46.545455-46.545454v-279.272728a46.545455 46.545455 0 0 1 93.090909 0v279.272728a46.545455 46.545455 0 0 1-46.545454 46.545454z m-186.181819 0a46.545455 46.545455 0 0 1-46.545454-46.545454v-279.272728a46.545455 46.545455 0 0 1 93.090909 0v279.272728a46.545455 46.545455 0 0 1-46.545455 46.545454z" p-id="1928" fill="#706F73"></path></svg>