<?xml version="1.0" encoding="utf-8"?>
<!-- Generator: Adobe Illustrator 16.0.0, SVG Export Plug-In . SVG Version: 6.00 Build 0)  -->
<!DOCTYPE svg PUBLIC "-//W3C//DTD SVG 1.1//EN" "http://www.w3.org/Graphics/SVG/1.1/DTD/svg11.dtd">
<svg version="1.1" id="图层_1" xmlns="http://www.w3.org/2000/svg" xmlns:xlink="http://www.w3.org/1999/xlink" x="0px" y="0px"
	 width="200px" height="200px" viewBox="0 0 200 200" enable-background="new 0 0 200 200" xml:space="preserve">
<path fill="#706F73" stroke="#706F73" stroke-width="4" stroke-miterlimit="10" d="M130,95h-25V70c0-3-2-5-5-5s-5,2-5,5v25H70
	c-3,0-5,2-5,5s2,5,5,5h25v25c0,3,2,5,5,5s5-2,5-5v-25h25c3,0,5-2,5-5C135,97.5,133,95,130,95z M100,20c-44,0-80,36-80,80
	s36,80,80,80s80-36,80-80S144,20,100,20z M100,170c-38.5,0-70-31.5-70-70s31.5-70,70-70s70,31.5,70,70S138.5,170,100,170z"/>
</svg>
