<?xml version="1.0" standalone="no"?><!DOCTYPE svg PUBLIC "-//W3C//DTD SVG 1.1//EN" "http://www.w3.org/Graphics/SVG/1.1/DTD/svg11.dtd"><svg t="1526994861868" class="icon" style="" viewBox="0 0 1024 1024" version="1.1" xmlns="http://www.w3.org/2000/svg" p-id="2280" xmlns:xlink="http://www.w3.org/1999/xlink" width="200" height="200"><defs><style type="text/css"></style></defs><path d="M153.22835 190.308814z m259.982746 51.31295c12.020988 0 22.312978 4.165996 30.85497 12.493988 8.552992 8.322992 12.820987 18.490982 12.820988 30.50697v173.321831c0 12.027988-4.268996 22.312978-12.820988 30.85997-8.542992 8.549992-18.834982 12.820987-30.85497 12.820987H239.885266c-12.027988 0-22.195978-4.270996-30.51197-12.820987-8.309992-8.547992-12.472988-18.831982-12.488988-30.85997V284.622722c0-12.030988 4.165996-22.200978 12.488988-30.50697 8.332992-8.310992 18.499982-12.478988 30.51197-12.493988h173.32583z m0 346.635662c12.020988 0 22.312978 4.165996 30.85497 12.491987 8.552992 8.324992 12.820987 18.492982 12.820988 30.508971v174.00883c0 12.030988-4.268996 22.198978-12.820988 30.50997-8.542992 8.307992-18.834982 12.472988-30.85497 12.488988H239.885266c-12.027988 0-22.195978-4.165996-30.51197-12.488988-8.309992-8.325992-12.472988-18.494982-12.488988-30.50997V631.258384c0-12.032988 4.165996-22.199978 12.488988-30.508971 8.332992-8.308992 18.499982-12.474988 30.51197-12.491987h173.32583z m347.324661 0c12.019988 0 22.187978 4.165996 30.502971 12.491987 8.310992 8.324992 12.476988 18.492982 12.488987 30.508971v174.00883c0 12.030988-4.160996 22.198978-12.488987 30.50997-8.327992 8.307992-18.495982 12.472988-30.502971 12.488988H587.200927c-12.020988 0-22.308978-4.165996-30.85597-12.488988-8.547992-8.325992-12.820987-18.494982-12.820988-30.50997V631.258384c0-12.032988 4.272996-22.199978 12.820988-30.508971s18.835982-12.474988 30.85597-12.491987h173.33483z m96.367906-270.382736c9.243991 9.239991 13.867986 20.10598 13.867987 32.591968 0 12.479988-4.623995 23.108977-13.867987 31.899969L727.943789 511.319501c-9.245991 9.245991-19.99098 13.864986-32.233968 13.864986-12.244988 0-22.988978-4.618995-32.233969-13.864986L534.510978 382.366627c-8.778991-8.790991-13.174987-19.419981-13.174987-31.899969 0-12.484988 4.395996-23.351977 13.174987-32.591968l128.964874-128.962874c9.244991-8.786991 19.98898-13.176987 32.233969-13.176988 12.242988 0 22.987978 4.389996 32.233968 13.176988l128.959874 128.962874z" fill="#0070c9" p-id="2281"></path></svg>