<?xml version="1.0" encoding="utf-8"?>
<!-- Generator: Adobe Illustrator 16.0.0, SVG Export Plug-In . SVG Version: 6.00 Build 0)  -->
<!DOCTYPE svg PUBLIC "-//W3C//DTD SVG 1.1//EN" "http://www.w3.org/Graphics/SVG/1.1/DTD/svg11.dtd">
<svg version="1.1" id="图层_1" xmlns="http://www.w3.org/2000/svg" xmlns:xlink="http://www.w3.org/1999/xlink" x="0px" y="0px"
	 width="1200px" height="1200px" viewBox="0 0 1200 1200" enable-background="new 0 0 1200 1200" xml:space="preserve">
<title>Untitled</title>
<desc>Created with Sketch.</desc>
<g id="Page-1">
	<g id="Group" transform="translate(196.000000, 110.000000)">
		<path id="Shape" fill="#706F73" d="M412.2,529.699c-146,0-264.9-118.8-264.9-264.899C147.3,118.8,266.1,0,412.2,0
			C558.2,0,677,118.8,677,264.8C677,410.9,558.2,529.699,412.2,529.699z M412.2,59c-113.5,0-205.8,92.3-205.8,205.8
			s92.3,205.8,205.8,205.8S618,378.3,618,264.8C618,151.4,525.7,59,412.2,59z"/>
		<path id="Shape_1_" fill="#706F73" d="M151.9,976.1c-20.2,0-78-3.2-113.601-36.4C-2.2,902-0.4,839.9,1.1,821.699
			c15.199-181.5,201.6-334.8,407-334.8c84.3,0,165.5,25.2,234.7,72.7c9.3,6.4,18.399,13.2,27.199,20.3
			c12.601,10.3,14.5,28.9,4.301,41.5c-10.301,12.601-28.9,14.5-41.5,4.3c-7.5-6.1-15.4-12-23.301-17.5
			C550.1,567.4,480.5,545.8,408.2,545.8c-176,0-335.4,128.6-348.2,280.7C58,850.8,62.9,881.9,78.6,896.4
			c20.1,18.8,64.8,21.101,78.699,20.4H647c16.301,0,29.5,13.2,29.5,29.5S663.2,976,646.9,976H158.6
			C157.7,976.1,155.3,976.1,151.9,976.1z"/>
		<path id="Shape-Copy" fill="#706F73" d="M658.462,976.1c20.2,0,78-3.2,113.601-36.4c40.5-37.699,38.7-99.8,37.2-118
			c-15.2-181.5-201.601-334.8-407-334.8c-84.301,0-165.5,25.2-234.7,72.7c-9.301,6.4-18.4,13.2-27.2,20.3
			c-12.601,10.3-14.5,28.9-4.3,41.5c10.3,12.601,28.899,14.5,41.5,4.3c7.5-6.1,15.399-12,23.3-17.5
			c59.4-40.8,129-62.399,201.3-62.399c176,0,335.4,128.6,348.2,280.7c2,24.3-2.9,55.399-18.6,69.899
			c-20.101,18.8-64.801,21.101-78.7,20.4h-489.7c-16.3,0-29.5,13.2-29.5,29.5s13.3,29.7,29.6,29.7h488.301
			C652.662,976.1,655.062,976.1,658.462,976.1z"/>
	</g>
</g>
</svg>
