<?xml version="1.0" standalone="no"?><!DOCTYPE svg PUBLIC "-//W3C//DTD SVG 1.1//EN" "http://www.w3.org/Graphics/SVG/1.1/DTD/svg11.dtd"><svg t="1523514731415" class="icon" style="" viewBox="0 0 1024 1024" version="1.1" xmlns="http://www.w3.org/2000/svg" p-id="2045" xmlns:xlink="http://www.w3.org/1999/xlink" width="200" height="200"><defs><style type="text/css"></style></defs><path d="M933.875 371.184v196.301c0 13.775-10.331 27.551-27.551 27.551h-27.551v203.189c0 17.219-17.219 34.439-34.439 34.439h-154.975v-48.214h134.311c6.887 0 13.775-3.444 13.775-10.331v-179.081h-199.745v268.622c0 17.22-13.775 27.551-27.551 27.551h-196.301c-13.775 0-27.551-10.331-27.551-27.551v-268.622h-199.745v179.081c0 6.887 6.887 10.331 13.775 10.331h137.755v48.214h-158.419c-17.219 0-34.439-17.22-34.439-34.439v-203.189h-27.551c-13.775 0-27.551-13.775-27.551-27.551v-196.301c0-13.775 13.775-27.551 27.551-27.551h27.551v-161.862c0-20.665 17.22-34.439 34.439-34.439h158.419v44.77h-137.755c-6.887 0-13.775 6.887-13.775 10.331v141.199h199.745v-268.622c0-13.775 13.775-27.551 27.551-27.551h196.301c13.775 0 27.551 13.775 27.551 27.551v268.622h199.745v-141.199c0-3.444-6.887-10.331-13.775-10.331h-134.311v-44.77h154.975c17.22 0 34.439 13.775 34.439 34.439v161.862h27.551c17.22 0 27.551 13.775 27.551 27.551zM637.701 381.515v175.638h254.847c3.444 0 6.887-3.444 6.887-6.887v-161.862c0-3.444-3.444-6.887-6.887-6.887h-254.847zM386.299 557.153v-175.638h-254.847c-3.444 0-6.887 3.444-6.887 6.887v161.862c0 3.444 3.444 6.887 6.887 6.887h254.847zM431.069 81.898h161.862c3.444 0 6.889 3.444 6.889 6.887v761.097c0 3.444-3.444 6.887-6.889 6.887h-161.862c-3.444 0-6.889-3.444-6.889-6.887v-761.097c0-3.444 3.444-6.887 6.889-6.887z" p-id="2046" fill="#0070C9"></path></svg>