<?xml version="1.0" standalone="no"?><!DOCTYPE svg PUBLIC "-//W3C//DTD SVG 1.1//EN" "http://www.w3.org/Graphics/SVG/1.1/DTD/svg11.dtd"><svg t="1536895010996" class="icon" style="" viewBox="0 0 1024 1024" version="1.1" xmlns="http://www.w3.org/2000/svg" p-id="1283" xmlns:xlink="http://www.w3.org/1999/xlink" width="22" height="22"><defs><style type="text/css"></style></defs><path d="M953.6 704c-19.2 0-32 12.8-32 32l0 140.8-844.8 0 0-620.8 844.8 0 0 134.4c0 19.2 12.8 32 32 32s32-12.8 32-32L985.6 262.4c0-38.4-32-70.4-70.4-70.4l-51.2 0c-19.2-70.4-83.2-128-160-128L166.4 64C76.8 64 0 140.8 0 230.4l0 25.6 0 6.4 0 614.4c0 38.4 32 70.4 70.4 70.4l844.8 0c38.4 0 70.4-32 70.4-70.4l0-140.8C985.6 723.2 972.8 704 953.6 704zM166.4 134.4 704 134.4c38.4 0 70.4 25.6 89.6 57.6L83.2 192C96 160 128 134.4 166.4 134.4z" p-id="1284" fill="#e6e6e6"></path><path d="M902.4 448l-172.8 0c-64 0-121.6 51.2-121.6 121.6s51.2 121.6 121.6 121.6l172.8 0c64 0 121.6-51.2 121.6-121.6S972.8 448 902.4 448zM902.4 620.8l-172.8 0c-25.6 0-51.2-19.2-51.2-51.2 0-25.6 19.2-51.2 51.2-51.2l172.8 0c25.6 0 51.2 19.2 51.2 51.2C953.6 595.2 934.4 620.8 902.4 620.8z" p-id="1285" fill="#e6e6e6"></path><path d="M736 569.6m-32 0a0.5 0.5 0 1 0 64 0 0.5 0.5 0 1 0-64 0Z" p-id="1286" fill="#e6e6e6"></path></svg>