<?xml version="1.0" encoding="utf-8"?>
<!-- Generator: Adobe Illustrator 16.0.0, SVG Export Plug-In . SVG Version: 6.00 Build 0)  -->
<!DOCTYPE svg PUBLIC "-//W3C//DTD SVG 1.1//EN" "http://www.w3.org/Graphics/SVG/1.1/DTD/svg11.dtd">
<svg version="1.1" id="图层_1" xmlns="http://www.w3.org/2000/svg" xmlns:xlink="http://www.w3.org/1999/xlink" x="0px" y="0px"
	 width="159.223px" height="130.294px" viewBox="17.941 331.302 159.223 130.294"
	 enable-background="new 17.941 331.302 159.223 130.294" xml:space="preserve">
<g>
	<g>
		<path fill="#FFFFFF" d="M55.392,338.478v32.966l-28.48-16.596L55.392,338.478 M58.98,331.302l-41.039,23.547l41.937,24.22V331.75
			L58.98,331.302L58.98,331.302z"/>
	</g>
	<g>
		<path fill="#FFFFFF" d="M62.568,338.478l28.481,16.37l-28.481,16.371V338.478 M58.98,331.302l-0.896,0.448v46.197l1.121,0.673
			l39.469-22.874V354.4L58.98,331.302L58.98,331.302z"/>
	</g>
	<g>
		<path fill="#FFFFFF" d="M139.713,338.478l28.48,16.37l-28.48,16.371V338.478 M136.349,331.302l-1.121,0.448v47.318l41.936-24.22
			L136.349,331.302L136.349,331.302z"/>
	</g>
	<g>
		<path fill="#FFFFFF" d="M132.761,338.478v32.966l-28.481-16.371L132.761,338.478 M136.349,331.302L96.431,354.4v1.346
			l39.693,22.874l1.122-0.673v-45.973L136.349,331.302L136.349,331.302z"/>
	</g>
	<g>
		<path fill="#FFFFFF" d="M94.189,360.904v32.966l-28.481-16.371L94.189,360.904 M97.777,353.727l-41.039,23.547l40.814,23.548
			l1.121-0.673v-45.974L97.777,353.727L97.777,353.727z"/>
	</g>
	<g>
		<path fill="#FFFFFF" d="M100.916,360.904l28.48,16.37l-28.48,16.371V360.904 M97.552,353.727l-1.121,0.448v45.974l1.121,0.673
			l40.815-23.548L97.552,353.727L97.552,353.727z"/>
	</g>
</g>
<g>
	<g>
		<path fill="#FFFFFF" d="M55.392,399.252v32.966l-28.48-16.595L55.392,399.252 M58.98,391.851l-41.039,23.771l41.937,24.22v-47.318
			L58.98,391.851L58.98,391.851z"/>
	</g>
	<g>
		<path fill="#FFFFFF" d="M62.568,399.252l28.481,16.371l-28.481,16.371V399.252 M58.98,392.076l-0.896,0.448v46.197l1.121,0.673
			l39.469-22.875v-1.345L58.98,392.076L58.98,392.076z"/>
	</g>
	<g>
		<path fill="#FFFFFF" d="M139.713,399.252l28.48,16.371l-28.48,16.371V399.252 M136.349,391.851l-0.897,0.673v47.318l41.712-24.22
			L136.349,391.851L136.349,391.851z"/>
	</g>
	<g>
		<path fill="#FFFFFF" d="M132.761,399.252v32.966l-28.481-16.371L132.761,399.252 M136.349,392.076L96.431,414.95v1.346
			l39.693,23.099l1.122-0.673v-46.197L136.349,392.076L136.349,392.076z"/>
	</g>
	<g>
		<path fill="#FFFFFF" d="M94.189,421.677v32.966l-28.481-16.37L94.189,421.677 M97.777,414.277l-41.039,23.771l40.814,23.547
			l1.121-0.673V414.95L97.777,414.277L97.777,414.277z"/>
	</g>
	<g>
		<path fill="#FFFFFF" d="M100.916,421.677l28.48,16.371l-28.48,16.371V421.677 M97.552,414.277l-1.121,0.673v45.973l1.121,0.673
			l40.815-23.547L97.552,414.277L97.552,414.277z"/>
	</g>
</g>
</svg>
